<svg width="23" height="21" viewBox="0 0 23 21" fill="none" xmlns="http://www.w3.org/2000/svg">
  <path
    d="M20.6792 10.7954L20.6922 10.8094L11.5002 20.0014L2.30821 10.8094L2.32121 10.7954C1.25378 9.55091 0.696055 7.94905 0.759802 6.31075C0.82355 4.67246 1.50406 3.11877 2.66496 1.96102C3.82587 0.803278 5.38141 0.12701 7.01987 0.0677303C8.65834 0.00845107 10.2587 0.570541 11.5002 1.64137C12.7417 0.570541 14.3421 0.00845107 15.9806 0.0677303C17.619 0.12701 19.1746 0.803278 20.3355 1.96102C21.4964 3.11877 22.1769 4.67246 22.2406 6.31075C22.3044 7.94905 21.7466 9.55091 20.6792 10.7954ZM4.07521 3.38437C3.65734 3.80223 3.32587 4.29831 3.09972 4.84428C2.87357 5.39025 2.75717 5.97541 2.75717 6.56636C2.75717 7.15732 2.87357 7.74249 3.09972 8.28845C3.32587 8.83442 3.65734 9.3305 4.07521 9.74837L11.5002 17.1734L18.9252 9.74837C19.7691 8.90445 20.2432 7.75985 20.2432 6.56636C20.2432 5.37288 19.7691 4.22828 18.9252 3.38437C18.0813 2.54045 16.9367 2.06634 15.7432 2.06634C14.5497 2.06634 13.4051 2.54045 12.5612 3.38437L8.31821 7.62737L6.90421 6.21137L10.0662 3.04937C9.20143 2.3587 8.11246 2.01094 7.00743 2.07256C5.90241 2.13417 4.85885 2.60084 4.07621 3.38337L4.07521 3.38437Z"
    fill="#D91372" />
</svg>